<svg width="59" height="58" viewBox="0 0 59 58" fill="none" xmlns="http://www.w3.org/2000/svg">
<path d="M19.9258 8.86621C18.083 8.86621 12.5274 11.12 11.5307 11.5704C10.534 12.0208 9.42765 13.4268 8.17233 15.7474C6.91529 18.0679 5.90658 20.7806 4.26764 24.771C2.63041 28.7613 2.24851 36.4542 2.30331 38.8021C2.35811 41.1501 2.62699 42.9843 5.03317 44.3732C7.43763 45.7604 9.56466 47.2126 11.803 48.086C14.0431 48.9595 15.5707 49.588 16.6085 48.7146C17.6463 47.8411 18.3297 46.3118 18.3297 46.3118C18.3297 46.3118 19.3127 44.9469 17.4562 44.1283C15.5998 43.3079 14.6716 42.7342 14.7521 41.8882C14.8343 41.0422 14.9696 40.5781 15.4337 40.6877C15.8978 40.7973 16.9921 42.7616 21.1965 43.6624C25.4009 44.5633 29.4991 44.428 29.4991 44.428C29.4991 44.428 33.599 44.565 37.8034 43.6624C42.0078 42.7616 43.1004 40.7973 43.5645 40.6877C44.0287 40.5781 44.1639 41.0422 44.2462 41.8865C44.3284 42.7342 43.4001 43.3079 41.5437 44.1283C39.6873 44.9469 40.6703 46.3118 40.6703 46.3118C40.6703 46.3118 41.3536 47.8394 42.3914 48.7146C43.4275 49.588 44.9569 48.9595 47.1952 48.086C49.4336 47.2126 51.5623 45.7621 53.9668 44.3732C56.3729 42.9843 56.6418 41.1501 56.6966 38.8021C56.7514 36.4559 56.3695 28.7613 54.7306 24.771C53.0933 20.7806 52.0829 18.0679 50.8259 15.7474C49.5723 13.4268 48.4642 12.0208 47.4692 11.5687C46.4725 11.12 40.9152 8.86621 39.0724 8.86621C37.2297 8.86621 36.6851 10.1506 36.6851 10.1506L36.0429 11.5704C36.0429 11.5704 31.7272 10.7501 29.5282 10.7483C27.3293 10.7483 22.957 11.5704 22.957 11.5704L22.3148 10.1489C22.3148 10.1489 21.7702 8.86621 19.9258 8.86621ZM20.1261 25.903H20.1947C22.8817 25.903 25.0584 28.2543 25.0584 31.1537C25.0584 34.0549 22.8817 36.4045 20.1947 36.4045C17.5076 36.4045 15.3309 34.0549 15.3309 31.1537C15.3292 28.2817 17.4665 25.9424 20.1261 25.903ZM38.8053 25.903H38.8738C41.5334 25.9424 43.669 28.2835 43.669 31.1537C43.669 34.0549 41.4923 36.4045 38.8053 36.4045C36.1165 36.4045 33.9415 34.0549 33.9415 31.1537C33.9415 28.2543 36.1165 25.903 38.8053 25.903Z" fill="#2A4A4D"/>
</svg>
