<svg width="61" height="60" viewBox="0 0 61 60" fill="none" xmlns="http://www.w3.org/2000/svg">
<g clip-path="url(#clip0_102_34)">
<path d="M30.5 37.5C34.6421 37.5 38 34.1421 38 30C38 25.8579 34.6421 22.5 30.5 22.5C26.3579 22.5 23 25.8579 23 30C23 34.1421 26.3579 37.5 30.5 37.5Z" fill="#2A4A4D"/>
<path d="M40.8125 6.5625H20.1875C16.7077 6.56644 13.3716 7.95052 10.9111 10.4111C8.45052 12.8716 7.06644 16.2077 7.0625 19.6875V40.3125C7.06644 43.7923 8.45052 47.1284 10.9111 49.5889C13.3716 52.0495 16.7077 53.4336 20.1875 53.4375H40.8125C44.2923 53.4336 47.6284 52.0495 50.0889 49.5889C52.5495 47.1284 53.9336 43.7923 53.9375 40.3125V19.6875C53.9336 16.2077 52.5495 12.8716 50.0889 10.4111C47.6284 7.95052 44.2923 6.56644 40.8125 6.5625ZM30.5 41.25C28.275 41.25 26.0999 40.5902 24.2498 39.354C22.3998 38.1179 20.9578 36.3609 20.1064 34.3052C19.2549 32.2495 19.0321 29.9875 19.4662 27.8052C19.9003 25.6229 20.9717 23.6184 22.545 22.045C24.1184 20.4717 26.1229 19.4003 28.3052 18.9662C30.4875 18.5321 32.7495 18.7549 34.8052 19.6064C36.8609 20.4578 38.6179 21.8998 39.854 23.7498C41.0902 25.5999 41.75 27.775 41.75 30C41.7466 32.9827 40.5603 35.8422 38.4512 37.9512C36.3422 40.0603 33.4827 41.2466 30.5 41.25ZM42.6875 20.625C42.1312 20.625 41.5875 20.4601 41.125 20.151C40.6624 19.842 40.302 19.4027 40.0891 18.8888C39.8762 18.3749 39.8205 17.8094 39.929 17.2638C40.0376 16.7182 40.3054 16.2171 40.6988 15.8238C41.0921 15.4304 41.5932 15.1626 42.1388 15.054C42.6844 14.9455 43.2499 15.0012 43.7638 15.2141C44.2777 15.427 44.717 15.7874 45.026 16.25C45.335 16.7125 45.5 17.2562 45.5 17.8125C45.5 18.5584 45.2037 19.2738 44.6762 19.8012C44.1488 20.3287 43.4334 20.625 42.6875 20.625Z" fill="#2A4A4D"/>
</g>
<defs>
<clipPath id="clip0_102_34">
<rect width="60" height="60" fill="white" transform="translate(0.5)"/>
</clipPath>
</defs>
</svg>
