<svg width="51" height="50" viewBox="0 0 51 50" fill="none" xmlns="http://www.w3.org/2000/svg">
<path d="M41.7971 5.33057C41.0282 5.33076 40.2707 5.51652 39.5889 5.87208C38.9071 6.22764 38.3212 6.74249 37.881 7.37291L29.3843 5.42517C29.2484 5.39476 29.1093 5.38118 28.9701 5.38473C28.6215 5.39191 28.2836 5.50616 28.0021 5.71198C27.7207 5.91779 27.5094 6.20521 27.3969 6.53522L24.2552 15.7605C19.235 15.9583 14.4783 17.3457 10.8201 19.6788C9.91214 19.1143 8.86436 18.8149 7.79516 18.8145C7.04212 18.8144 6.29644 18.9626 5.6007 19.2508C4.90496 19.5389 4.2728 19.9613 3.74032 20.4937C3.20784 21.0262 2.78547 21.6584 2.49734 22.3541C2.2092 23.0499 2.06095 23.7955 2.06104 24.5486C2.06118 25.4011 2.25143 26.2428 2.61793 27.0125C2.98443 27.7822 3.51796 28.4605 4.17967 28.9979C4.13003 29.3984 4.10509 29.8 4.1049 30.2018C4.10487 32.1016 4.65823 33.9828 5.7334 35.738C6.80857 37.4932 8.38448 39.088 10.3712 40.4313C12.3579 41.7746 14.7164 42.8402 17.3121 43.5672C19.9079 44.2942 22.6899 44.6684 25.4995 44.6684C28.3091 44.6684 31.0912 44.2942 33.6869 43.5672C36.2827 42.8402 38.6412 41.7746 40.6279 40.4313C42.6146 39.088 44.1905 37.4932 45.2657 35.738C46.3408 33.9828 46.8942 32.1016 46.8942 30.2018C46.894 29.8 46.869 29.3984 46.8194 28.9979C47.4811 28.4605 48.0146 27.7822 48.3811 27.0125C48.7476 26.2428 48.9379 25.4011 48.938 24.5486C48.9381 23.7955 48.7899 23.0499 48.5017 22.3541C48.2136 21.6584 47.7912 21.0262 47.2587 20.4937C46.7263 19.9613 46.0941 19.5389 45.3984 19.2508C44.7026 18.9626 43.957 18.8144 43.2039 18.8145C42.1344 18.8148 41.0864 19.1142 40.1782 19.6788C36.7902 17.5183 32.4521 16.1642 27.8226 15.8223L30.1175 9.08033L37.0517 10.6672C37.1886 11.8296 37.7475 12.9013 38.6222 13.679C39.4969 14.4567 40.6266 14.8862 41.7971 14.8862C43.0642 14.8863 44.2795 14.383 45.1756 13.487C46.0717 12.5911 46.5751 11.3759 46.5753 10.1087C46.5753 9.48126 46.4517 8.8599 46.2116 8.28017C45.9715 7.70044 45.6196 7.17368 45.1759 6.72997C44.7322 6.28627 44.2054 5.93431 43.6257 5.6942C43.0459 5.45409 42.4246 5.33053 41.7971 5.33057ZM18.0198 24.3907C18.0336 24.3906 18.0473 24.3906 18.061 24.3907C18.4654 24.3906 18.8658 24.4703 19.2394 24.625C19.613 24.7798 19.9524 25.0066 20.2384 25.2925C20.5243 25.5784 20.7511 25.9179 20.9058 26.2915C21.0606 26.665 21.1402 27.0654 21.1402 27.4698C21.1402 27.8742 21.0606 28.2746 20.9058 28.6482C20.7511 29.0218 20.5243 29.3612 20.2384 29.6471C19.9524 29.9331 19.613 30.1599 19.2394 30.3146C18.8658 30.4693 18.4654 30.549 18.061 30.549C17.6567 30.549 17.2563 30.4693 16.8827 30.3146C16.5091 30.1599 16.1697 29.9331 15.8837 29.6471C15.5978 29.3612 15.371 29.0218 15.2163 28.6482C15.0615 28.2746 14.9819 27.8742 14.9819 27.4698C14.9818 26.6603 15.3005 25.8832 15.8691 25.3069C16.4377 24.7306 17.2104 24.4015 18.0198 24.3907ZM32.8968 24.3907C32.9106 24.3906 32.9243 24.3906 32.938 24.3907C33.3424 24.3906 33.7428 24.4703 34.1164 24.625C34.49 24.7798 34.8294 25.0066 35.1153 25.2925C35.4013 25.5784 35.6281 25.9179 35.7828 26.2915C35.9376 26.665 36.0172 27.0654 36.0172 27.4698C36.0172 27.8742 35.9376 28.2746 35.7828 28.6482C35.6281 29.0218 35.4013 29.3612 35.1153 29.6471C34.8294 29.9331 34.49 30.1599 34.1164 30.3146C33.7428 30.4693 33.3424 30.549 32.938 30.549C32.5337 30.549 32.1333 30.4693 31.7597 30.3146C31.3861 30.1599 31.0466 29.9331 30.7607 29.6471C30.4748 29.3612 30.248 29.0218 30.0932 28.6482C29.9385 28.2746 29.8589 27.8742 29.8589 27.4698C29.8588 26.6603 30.1775 25.8832 30.7461 25.3069C31.3147 24.7306 32.0873 24.4015 32.8968 24.3907ZM18.5646 33.7235C18.9152 33.7281 19.2557 33.8411 19.5396 34.047C19.5396 34.047 24.6865 38.0084 31.7105 33.9531C32.1005 33.7283 32.5638 33.6674 32.9986 33.7838C33.4335 33.9003 33.8043 34.1845 34.0298 34.5741C34.2549 34.9641 34.3161 35.4275 34.1998 35.8625C34.0835 36.2975 33.7992 36.6686 33.4095 36.8942C24.8568 41.8321 17.5491 36.7996 17.5491 36.7996C17.1845 36.5359 16.9394 36.1382 16.8676 35.694C16.7958 35.2497 16.9031 34.7951 17.1661 34.43C17.3187 34.2181 17.518 34.0442 17.7486 33.9218C17.9792 33.7994 18.2349 33.7318 18.4959 33.7242C18.5188 33.7235 18.5417 33.7233 18.5646 33.7235Z" fill="#2A4A4D"/>
</svg>
