<svg width="49" height="42" viewBox="0 0 49 42" fill="none" xmlns="http://www.w3.org/2000/svg">
<g clip-path="url(#clip0_102_17)">
<path fill-rule="evenodd" clip-rule="evenodd" d="M15.4105 42.0003C33.9007 42.0003 44.0143 25.8404 44.0143 11.8256C44.0143 11.3662 44.0142 10.9095 43.9848 10.4554C45.9484 8.95836 47.6467 7.09839 49 4.96186C47.1637 5.82192 45.2184 6.38469 43.2278 6.63325C45.3176 5.31809 46.8887 3.23286 47.6476 0.766731C45.6697 2.00315 43.5111 2.87283 41.2629 3.33918C39.4184 1.28562 36.8968 0.0873962 34.238 0.00153291C31.5792 -0.0843304 28.9947 0.949511 27.0382 2.88032C25.7594 4.14198 24.8162 5.74504 24.3053 7.52534C23.7943 9.30563 23.7338 11.1989 24.1301 13.0125C20.1478 12.8088 16.2488 11.7179 12.6815 9.81068C9.11419 7.90346 5.95676 5.22115 3.4104 1.93439C2.12722 4.26898 1.73478 7.04416 2.31495 9.68122C2.89511 12.3183 4.40309 14.6139 6.52435 16.0886C4.92642 16.04 3.36208 15.586 1.96 14.7633V14.8966C1.96245 19.9445 5.3361 24.2914 10.0254 25.2915C8.54509 25.7181 6.99383 25.7809 5.488 25.4735C6.80365 29.7943 10.5791 32.7518 14.8789 32.8384C10.6495 36.3382 5.3059 37.918 0 37.236C4.61284 40.353 9.95693 42.0025 15.4105 41.9926" fill="#2A4A4D"/>
</g>
<defs>
<clipPath id="clip0_102_17">
<rect width="49" height="42" fill="white"/>
</clipPath>
</defs>
</svg>
